<?xml version="1.0" encoding="UTF-8" standalone="no"?>
<!-- Created with Inkscape (http://www.inkscape.org/) -->

<svg
   xmlns:dc="http://purl.org/dc/elements/1.1/"
   xmlns:cc="http://creativecommons.org/ns#"
   xmlns:rdf="http://www.w3.org/1999/02/22-rdf-syntax-ns#"
   xmlns:svg="http://www.w3.org/2000/svg"
   xmlns="http://www.w3.org/2000/svg"
   xmlns:sodipodi="http://sodipodi.sourceforge.net/DTD/sodipodi-0.dtd"
   xmlns:inkscape="http://www.inkscape.org/namespaces/inkscape"
   width="193mm"
   height="64mm"
   viewBox="0 0 193 64"
   version="1.1"
   id="svg8"
   inkscape:version="0.92.5 (2060ec1f9f, 2020-04-08)"
   sodipodi:docname="WestCar_logo.svg">
  <defs
     id="defs2" />
  <sodipodi:namedview
     id="base"
     pagecolor="#ffffff"
     bordercolor="#666666"
     borderopacity="1.0"
     inkscape:pageopacity="0.0"
     inkscape:pageshadow="2"
     inkscape:zoom="1.4"
     inkscape:cx="359.86481"
     inkscape:cy="270.25307"
     inkscape:document-units="mm"
     inkscape:current-layer="layer3"
     showgrid="false"
     inkscape:window-width="1920"
     inkscape:window-height="1031"
     inkscape:window-x="0"
     inkscape:window-y="25"
     inkscape:window-maximized="1" />
  <metadata
     id="metadata5">
    <rdf:RDF>
      <cc:Work
         rdf:about="">
        <dc:format>image/svg+xml</dc:format>
        <dc:type
           rdf:resource="http://purl.org/dc/dcmitype/StillImage" />
        <dc:title></dc:title>
      </cc:Work>
    </rdf:RDF>
  </metadata>
  <g
     inkscape:groupmode="layer"
     id="layer2"
     inkscape:label="Letras"
     style="display:inline"
     transform="translate(0,-233)" />
  <g
     inkscape:groupmode="layer"
     id="layer3"
     inkscape:label="numeros"
     style="display:inline"
     transform="translate(0,-233)">
    <path
       style="fill:#ffff00;stroke:#000000;stroke-width:0.26458332px;stroke-linecap:butt;stroke-linejoin:miter;stroke-opacity:1"
       d="m 141.07064,233.55315 c -3.52434,-0.0668 -9.75338,1.40029 -20.48971,5.91695 -5.52859,3.27203 -9.81594,8.91367 -9.81594,8.91367 l -2.14405,-0.56431 c 0,0 -9.703188,12.74969 -4.06177,19.74505 -2.39971,0.31933 -4.902006,0.70824 -7.465175,1.14825 -0.106246,-1.04338 -0.786686,-9.98857 6.110735,-19.53886 2.25657,-0.33848 4.73925,-1.12861 4.73925,-1.12861 0,0 -27.416987,4.62625 -35.766292,4.17494 -4.400304,1.69242 -9.477756,4.62573 -12.975436,4.5129 8.913442,0.45131 35.202502,-4.40077 35.202502,-4.40077 0,0 -3.723793,8.68807 -4.062285,17.26303 -4.174646,0.45132 -6.205305,1.01544 -6.205305,1.01544 0,0 11.395662,-9.13898 -1.353923,-8.46201 3.723338,-2.25657 5.077208,-5.18986 5.077208,-5.18986 0,0 2.48235,-4.62633 -10.492898,0.90227 -3.610512,1.46677 -8.23672,6.09296 -7.221265,8.57518 1.015455,2.48223 11.395689,-1.46709 11.395686,-1.46709 0,0 8.688041,-2.3688 -5.528344,6.99595 -5.190107,1.69243 -9.703398,2.03044 -1.579748,-3.38532 -8.41629,3.02986 -9.243999,2.82765 -11.028783,7.5985 -0.387329,0.1 -0.789845,0.20101 -1.171506,0.30024 -2.729061,0.60232 -8.366353,2.16555 -14.640449,3.97392 1.94949,-1.57194 3.669728,-3.57184 4.637961,-5.27255 -0.08488,3.99916 5.222986,2.47896 8.437726,0.73381 4.061807,-5.64142 10.492899,-8.23619 10.492899,-8.23619 -6.092735,1.12829 -4.174342,0.90272 -9.928593,5.98 -7.897992,5.64142 -3.272152,-4.51342 -3.272152,-4.51342 0,0 0.676963,-1.24114 0.676963,2.03088 4.738793,0.22566 3.723208,-1.12805 9.138975,-4.85138 3.384857,-4.86573 3.299042,-8.14479 -0.908471,-8.07083 -0.2805,0.005 -0.579257,0.0242 -0.896585,0.0594 -4.360728,0.48453 -7.972031,3.71895 -11.192081,9.91103 1.928553,-6.16528 3.128216,-13.68737 -5.957777,-11.60343 2.820713,1.35394 4.851477,4.62609 -1.918229,16.36024 -1.579597,1.80526 -8.913381,5.9803 -4.73873,-3.27163 4.174654,-9.25194 5.641002,-10.8319 5.641002,-10.8319 0,0 -8.010515,4.06228 -9.590114,4.06228 0.564139,2.14375 -1.579859,7.89746 -6.205823,13.42606 -3.836165,4.06182 -6.769161,5.64168 -2.030365,-6.54379 7.108187,-12.52395 9.251629,-17.26251 9.251629,-17.26251 0,0 5.980031,-18.39172 -9.138975,-12.63747 -15.119003,5.75425 -15.90891,19.29387 -5.641517,22.34024 l -3.835943,-4.73873 c 0,0 -2.257026,-7.22119 8.348845,-12.97544 4.061826,6.99536 2.369683,4.51327 -8.236188,28.43289 -4.367088,9.84918 -3.31872,14.45365 -0.182419,15.48174 -2.63793,0.65486 -15.0767831,3.09208 -17.193265,-8.59896 -2.36939824,-13.0881 7.898052,-15.68369 8.01088,-10.38076 -1.8052537,0.90263 -1.917713,1.12861 -1.9177119,1.12861 l 9.3642859,5.41569 1.579749,-10.60555 -1.466577,0.33848 c 0,0 -0.338719,-6.43148 -8.236707,-6.20582 C 2.7878453,259.77929 -0.7098667,276.36545 0.30558931,281.78121 1.3210453,287.19697 9.218668,298.47962 28.061,296.67436 46.903347,294.8691 52.77112,293.966 52.77112,293.966 l -7.108611,-1.01493 c 0,0 35.992517,-10.7187 45.131614,-12.41112 5.979903,4.28747 9.025805,6.31847 9.025805,6.31847 l -1.805059,-7.33392 c 0,0 42.198151,-5.75451 63.861221,-6.20582 21.66306,-0.45132 23.80665,2.36969 23.91947,3.83646 0.11283,1.46676 0.11301,5.18993 -13.53923,0.11265 0.11282,-1.35394 -0.56431,-1.6924 -0.56431,-1.6924 0,0 -14.89347,7.55913 -16.69872,13.65188 10.83152,-6.65689 9.92903,-5.41535 16.02176,-5.30252 3.43134,0.0635 2.99778,-0.44543 1.96423,-0.90227 4.57882,1.44921 15.89373,4.16982 19.02209,-3.1595 3.94899,-9.25193 -16.47335,-9.47762 -21.21214,-9.70328 9.59042,-0.90263 20.42201,-3.61063 20.42201,-3.61063 l -17.14986,-4.06177 2.70785,-0.90227 -12.29796,-12.86278 -5.07773,-0.45114 c 0,0 -0.22544,5.97979 -3.15898,9.13898 -3.83616,-0.45131 -5.98,-0.22582 -5.98,-0.22582 l 5.19038,-4.06177 -2.82101,-0.67696 -4.40025,3.72328 c 0,0 5.52866,-8.80037 -4.40025,-5.18986 -9.92889,3.61051 -6.99544,5.07721 -6.99544,5.07721 0,0 -14.10332,9.47745 -4.17442,10.15442 6.74058,0.45958 7.60297,-1.16035 7.46311,-2.24844 0.44664,0.9941 1.31067,2.43616 2.57814,2.36161 1.91809,-0.11283 6.31852,1.24083 16.36024,-4.51342 3.27204,-0.11283 13.87838,1.12808 14.44253,2.14354 0.56414,1.01545 -11.28303,3.3848 -11.28303,3.3848 l -4.4726,-0.0744 0.22118,-0.12247 c 0,0 -8.35711,-0.11987 -20.36672,-0.0858 l -10.69754,-0.0558 h -5.86682 l 9.70328,-8.79998 -13.59658,9.06405 c -1.41762,0.0259 -2.84458,0.055 -4.28708,0.0868 -2.76951,-0.82245 -5.32883,-3.41336 -0.39429,-11.29492 3.15919,-4.51314 3.72277,-4.62607 3.72277,-4.62607 l 5.52886,-0.45114 -2.70784,-1.91823 c 0,0 7.55946,-8.91365 16.13441,-10.26759 2.93353,3.61051 -7.22075,9.92911 -7.22075,9.92911 0,0 -10.60594,13.65235 5.07721,4.28759 15.68315,-9.36475 -3.04681,1.2411 -4.73924,1.35393 -1.69243,0.11283 15.9091,-14.10354 15.9091,-14.10354 0,0 4.12523,-6.5702 -3.09128,-6.70708 z m 4.45502,19.01641 c 1.77082,0.024 -1.50315,5.05206 -2.94349,6.87142 -11.05718,9.81607 -4.06176,-2.36937 -4.06176,-2.36937 4.0724,-3.33196 6.14043,-4.51377 7.00525,-4.50205 z m 17.14004,0.1018 6.09265,5.98 c 0,0 -2.59495,0.11231 -7.44657,-0.339 1.5796,-2.48222 1.35392,-5.641 1.35392,-5.641 z m -80.224039,4.51807 c 0.03422,-0.002 0.06553,-0.002 0.09457,0 1.187513,0.0773 -1.862421,3.37447 -1.862418,3.37447 l -0.0801,1.91461 c 0,0 -1.435775,0.55886 -3.829225,0.87799 -0.239342,-2.07433 0.399076,-2.55338 1.994712,-4.38836 2.061549,-1.26218 3.169193,-1.74785 3.682463,-1.77871 z m 65.894689,1.68724 5.64151,1.46709 -3.38481,2.8205 c 0,0 -8.34923,4.06185 -4.73872,-2.03088 2.3694,-1.91808 2.48202,-2.25671 2.48202,-2.25671 z m -81.742302,1.96473 c 0.811147,0.0636 -0.721071,2.40007 -1.186489,3.56361 -7.446677,7.89799 -1.692405,-1.91771 -1.692405,-1.91771 1.657173,-1.23406 2.51019,-1.67482 2.878894,-1.6459 z m -29.506724,14.95982 c 0.209158,3.9744 1.297704,6.06448 2.81533,6.89415 -3.959833,1.16526 -7.641177,2.26232 -10.807607,3.21117 3.217664,-2.30966 6.305751,-5.88904 7.992277,-10.10532 z"
       id="path9"
       inkscape:connector-curvature="0" />
  </g>
</svg>
